# xmcd CD database file
#
# Track frame offsets:
#	150
#	19327
#	55130
#	88692
#	119125
#	168345
#	195717
#	226330
#	247930
#	268880
#	292842
#
# Disc length: 4225 seconds
#
# Revision: 3
# Processed by: cddbd v1.4PL0 Copyright (c) Steve Scherf et al.
# Submitted via: CDex 1.50
#
DISCID=99107f0b
DTITLE=Nick Gravenites and Animal Mind - Don´t Feed The Animals
DYEAR=1996
DGENRE=Blues
TTITLE0=You Can´t Hurt Me
TTITLE1=Gypsy Good Time
TTITLE2=Big Bad Etta
TTITLE3=Funky News
TTITLE4=Wintry Countryside
TTITLE5=Blue Highway
TTITLE6=My Party
TTITLE7=Key To The Highway
TTITLE8=Six Weeks In Reno
TTITLE9=Southside
TTITLE10=Buried Alive In The Blues
EXTD=YEAR: 1996
EXTT0=
EXTT1=
EXTT2=
EXTT3=
EXTT4=
EXTT5=
EXTT6=
EXTT7=
EXTT8=
EXTT9=
EXTT10=
PLAYORDER=
